<?xml version="1.0" standalone="no"?>
<!DOCTYPE svg PUBLIC "-//W3C//DTD SVG 20010904//EN"
 "http://www.w3.org/TR/2001/REC-SVG-20010904/DTD/svg10.dtd">
<svg version="1.0" xmlns="http://www.w3.org/2000/svg"
 width="1024.000000pt" height="1024.000000pt" viewBox="0 0 1024.000000 1024.000000"
 preserveAspectRatio="xMidYMid meet">

<g transform="translate(0.000000,1024.000000) scale(0.100000,-0.100000)"
fill="#000000" stroke="none">
<path d="M4915 8304 c-244 -17 -414 -40 -485 -63 -14 -5 -54 -17 -90 -26 -301
-82 -487 -164 -720 -320 -129 -87 -175 -125 -275 -228 -322 -331 -639 -690
-721 -817 -68 -106 -153 -280 -169 -350 -8 -36 -22 -101 -30 -145 -9 -44 -23
-95 -31 -113 -19 -44 -18 -243 1 -533 9 -123 19 -340 23 -481 l7 -258 28 -27
c27 -28 29 -28 145 -26 l117 2 23 -82 c110 -393 325 -769 612 -1071 92 -97
247 -231 361 -313 48 -35 90 -71 94 -80 13 -31 19 -1083 7 -1083 -22 0 -211
199 -343 360 -74 91 -243 276 -379 415 -135 137 -265 274 -290 304 -92 111
-407 544 -460 632 -30 50 -106 168 -169 262 -63 95 -178 278 -256 407 -77 129
-179 298 -226 375 -47 77 -125 217 -174 310 -131 251 -423 721 -595 955 -42
58 -115 159 -161 224 -154 218 -197 249 -260 187 -42 -43 -37 -83 17 -142 41
-43 277 -373 408 -570 145 -217 324 -509 397 -647 28 -53 74 -140 102 -192 27
-52 109 -192 182 -310 72 -118 169 -278 215 -355 46 -77 120 -194 165 -260 45
-66 115 -174 155 -240 101 -166 128 -205 343 -493 174 -234 209 -274 446 -517
230 -235 313 -327 543 -607 67 -81 248 -257 285 -276 12 -7 31 -12 42 -12 13
0 22 -8 25 -22 3 -13 8 -279 11 -593 4 -313 11 -673 16 -800 5 -126 12 -332
16 -457 l6 -228 98 0 99 0 0 148 c0 81 -5 215 -10 297 -17 274 -56 2788 -43
2804 2 3 56 -21 121 -52 222 -107 473 -183 772 -233 130 -22 508 -30 650 -14
328 36 635 120 891 244 92 45 99 45 93 3 -18 -126 -37 -461 -41 -722 -5 -311
3 -484 42 -920 8 -88 26 -297 40 -465 47 -559 86 -1005 91 -1047 l6 -43 100 0
99 0 -5 43 c-8 57 -47 500 -101 1152 -25 297 -50 573 -55 614 -7 54 -7 77 1
87 11 13 8 49 -6 85 -4 11 13 30 62 66 142 106 408 410 552 631 47 73 150 231
229 350 79 119 163 253 187 297 23 44 54 100 67 125 14 25 51 92 83 150 32 58
91 161 133 229 66 109 156 287 246 485 15 32 64 122 110 200 46 77 142 256
213 396 72 140 155 302 186 360 46 88 267 572 267 586 0 5 70 158 140 309 96
204 113 242 165 360 7 17 22 59 33 95 123 397 141 461 135 494 -19 98 -203 57
-203 -44 0 -20 4 -40 9 -46 6 -5 3 -30 -9 -64 -10 -30 -36 -113 -58 -185 -46
-152 -82 -242 -186 -458 -42 -87 -76 -160 -76 -162 0 -2 -16 -39 -36 -82 -20
-43 -40 -87 -44 -98 -7 -17 -132 -303 -177 -405 -24 -54 -164 -334 -173 -345
-4 -5 -68 -129 -142 -275 -74 -146 -161 -308 -193 -360 -32 -52 -89 -160 -127
-240 -39 -80 -90 -187 -115 -239 -24 -51 -80 -150 -122 -220 -43 -69 -133
-227 -200 -351 -68 -124 -189 -325 -270 -447 -80 -122 -181 -275 -223 -340
-42 -65 -118 -167 -168 -228 -92 -111 -288 -315 -302 -315 -5 0 -8 106 -8 234
0 227 11 408 47 758 l16 167 127 94 c427 320 751 773 895 1252 15 50 29 92 31
94 2 2 10 -2 18 -8 15 -13 149 -32 240 -35 42 -1 51 3 68 25 19 25 20 49 25
525 5 411 8 502 20 515 29 34 27 93 -11 374 -9 61 -18 121 -21 135 -4 14 -10
43 -15 65 -51 217 -74 308 -91 355 -12 30 -38 102 -59 160 -64 178 -134 309
-261 490 -154 219 -305 326 -654 463 -104 41 -212 82 -240 90 -27 8 -77 27
-110 42 -33 14 -105 39 -160 55 -55 15 -136 41 -180 57 -44 16 -96 32 -115 36
-19 3 -78 18 -130 32 -52 14 -207 41 -345 60 -137 19 -277 40 -310 46 -59 11
-470 20 -570 13z m299 -189 c-9 -13 -22 -44 -29 -67 -11 -40 -15 -43 -56 -50
-24 -3 -61 -7 -82 -7 l-38 -1 3 75 3 75 108 0 107 0 -16 -25z m264 8 l112 -17
-7 -36 c-17 -92 -8 -85 -119 -81 -54 1 -102 6 -106 10 -4 4 -4 20 1 37 6 21 4
41 -5 63 -8 19 -14 35 -14 37 0 7 22 5 138 -13z m-634 -65 c-4 -40 -12 -78
-18 -84 -11 -11 -154 -44 -189 -44 -11 0 -23 15 -33 40 -16 39 -54 70 -88 70
-8 0 -29 -12 -46 -27 -31 -26 -32 -29 -26 -80 5 -39 3 -55 -6 -58 -18 -5 -199
-71 -220 -80 -14 -6 -22 3 -39 41 -28 67 -46 84 -86 84 -45 0 -68 -13 -82 -48
-10 -24 -9 -38 10 -86 25 -69 26 -68 -76 -122 -38 -20 -89 -50 -112 -66 l-43
-29 -29 22 c-41 30 -90 28 -118 -6 -25 -29 -28 -50 -12 -92 9 -24 7 -30 -18
-48 -42 -30 -111 -90 -179 -156 -34 -33 -67 -59 -74 -59 -6 0 -26 11 -44 25
-19 14 -46 25 -64 25 -18 0 -32 3 -32 6 0 12 140 163 250 272 201 197 469 357
746 446 288 92 425 122 572 125 l62 1 -6 -72z m1058 6 c51 -9 95 -17 96 -19 7
-7 -42 -127 -54 -132 -14 -5 -194 36 -207 47 -5 4 -1 33 10 64 21 65 17 64
155 40z m463 -113 c34 -16 94 -37 133 -46 40 -10 72 -19 72 -21 0 -13 -96
-157 -107 -161 -9 -3 -40 6 -70 21 -48 24 -54 30 -48 49 4 12 10 43 12 69 4
42 2 48 -22 64 -40 26 -84 22 -112 -10 -12 -15 -23 -35 -23 -45 0 -32 -26 -45
-61 -31 -16 7 -28 18 -26 24 2 6 12 36 22 66 9 30 24 60 32 66 19 16 113 -6
198 -45z m491 -170 c99 -36 185 -71 202 -84 18 -14 15 -27 -8 -27 -21 0 -52
-30 -131 -128 -32 -40 -57 -62 -67 -60 -23 4 -232 141 -232 152 0 10 75 133
98 159 21 24 44 22 138 -12z m-1226 -11 c394 -68 721 -198 1035 -411 464 -314
814 -802 954 -1329 63 -237 75 -332 75 -590 0 -200 -3 -252 -22 -354 -41 -218
-77 -340 -155 -521 -225 -526 -622 -933 -1157 -1188 -224 -107 -460 -177 -735
-219 -120 -18 -530 -18 -650 1 -227 34 -342 62 -521 127 -619 224 -1109 659
-1384 1229 -217 451 -279 967 -174 1460 87 409 322 829 633 1134 386 378 912
621 1476 681 142 15 484 4 625 -20z m1660 -180 c64 -38 140 -90 168 -115 65
-59 203 -250 270 -375 76 -142 186 -438 216 -583 9 -39 24 -108 35 -152 10
-44 22 -105 26 -135 3 -30 13 -95 21 -144 8 -49 11 -92 7 -96 -4 -5 -50 -10
-102 -12 l-94 -3 -23 91 c-57 229 -153 453 -286 672 l-38 63 40 37 c22 20 66
51 97 68 65 34 88 69 78 114 -12 55 -70 75 -138 47 -18 -8 -63 -37 -100 -65
-37 -29 -72 -52 -76 -52 -11 0 -101 115 -101 129 0 5 42 47 94 91 52 45 96 90
99 102 13 47 -28 98 -77 98 -38 0 -81 -29 -173 -114 l-63 -58 -89 83 c-50 45
-87 87 -83 93 3 6 39 50 79 98 60 71 73 92 73 121 0 19 -7 40 -15 47 -8 7 -15
17 -15 22 0 19 54 -4 170 -72z m-4120 -391 c0 -23 10 -41 36 -65 40 -38 42
-31 -38 -132 -133 -168 -266 -398 -343 -592 -21 -52 -40 -97 -42 -100 -3 -3
-47 -5 -100 -5 l-95 0 7 54 c4 29 13 76 22 105 19 66 121 260 178 338 60 82
356 428 366 428 5 0 9 -14 9 -31z m-486 -1065 c35 -5 46 -11 42 -21 -6 -15
-36 -171 -56 -288 -26 -158 -23 -499 7 -697 5 -36 5 -36 -38 -45 -44 -9 -44
-9 -46 22 -1 16 -7 131 -13 255 -6 124 -18 310 -25 413 -12 163 -11 193 1 223
10 24 13 50 8 84 -7 53 -11 49 62 59 6 0 32 -2 58 -5z m5320 -585 c7 -235 2
-520 -10 -576 -3 -19 -11 -23 -40 -23 -41 0 -94 25 -94 43 0 8 7 60 17 118 19
120 22 520 5 629 -5 36 -8 67 -7 70 2 3 30 4 63 2 l59 -4 7 -259z"/>
<path d="M5348 6594 c-29 -15 -58 -61 -58 -89 0 -49 79 -119 111 -99 19 11
112 5 234 -16 66 -11 148 -20 182 -20 l61 0 12 -52 c6 -29 27 -118 46 -198 49
-200 85 -415 91 -543 5 -95 9 -112 30 -137 44 -53 122 -48 156 9 23 39 22 113
-3 297 -24 178 -30 212 -81 420 -21 89 -39 170 -39 182 0 26 18 32 103 32 103
0 307 19 329 31 53 29 59 121 10 160 -25 20 -34 21 -152 15 -69 -3 -235 -9
-370 -12 -221 -5 -256 -4 -359 15 -135 25 -264 27 -303 5z"/>
<path d="M4140 6570 c-19 -4 -87 -27 -150 -52 -63 -25 -155 -57 -205 -72 -105
-31 -118 -36 -286 -104 -106 -44 -131 -50 -157 -43 -59 17 -112 -13 -133 -76
-15 -48 -4 -94 32 -129 49 -47 91 -40 322 54 108 45 203 79 211 76 14 -5 38
-96 56 -209 27 -175 96 -491 131 -600 22 -66 39 -134 39 -152 0 -45 19 -82 51
-99 35 -18 63 -18 98 1 62 32 65 123 10 287 -17 51 -37 116 -44 143 -14 53
-14 55 -75 380 -22 116 -44 228 -50 250 -16 65 -13 72 33 88 23 9 69 27 102
41 33 14 73 26 88 26 75 0 117 113 62 164 -21 20 -72 39 -94 35 -3 -1 -22 -5
-41 -9z"/>
<path d="M4791 5996 c-28 -16 -50 -52 -51 -84 0 -38 27 -72 126 -157 51 -44
93 -85 94 -92 0 -7 -13 -34 -29 -61 -39 -67 -44 -87 -31 -127 14 -44 44 -65
90 -65 45 0 73 20 106 75 14 25 30 45 34 45 5 0 20 -11 34 -25 19 -19 35 -25
70 -25 37 0 48 5 70 31 46 54 30 132 -39 199 -19 19 -35 41 -35 50 0 10 13 37
30 61 37 55 39 97 4 138 -21 25 -33 31 -66 31 -61 0 -102 -29 -129 -92 -6 -16
-16 -28 -22 -28 -6 0 -40 26 -76 58 -97 86 -127 97 -180 68z"/>
<path d="M5102 4750 c-50 -12 -373 -176 -406 -207 -41 -38 -66 -99 -66 -163 0
-104 74 -193 250 -299 118 -72 189 -93 335 -98 106 -5 132 -2 223 21 123 31
290 109 353 165 64 56 89 113 89 201 0 86 -32 166 -92 227 -44 45 -78 59 -220
89 -43 9 -78 20 -78 24 0 33 -292 63 -388 40z m163 -180 c104 -13 272 -46 367
-71 47 -12 81 -64 82 -125 1 -58 -30 -89 -142 -143 -132 -62 -220 -85 -332
-85 -121 0 -200 27 -320 107 -81 54 -120 97 -120 134 0 32 2 33 173 118 130
65 178 84 197 80 14 -4 57 -10 95 -15z"/>
</g>
</svg>
