<?xml version="1.0" encoding="utf-8"?>
<!DOCTYPE svg PUBLIC "-//W3C//DTD SVG 20010904//EN"
 "http://www.w3.org/TR/2001/REC-SVG-20010904/DTD/svg10.dtd">
<!-- Generator: Adobe Illustrator 27.3.1, SVG Export Plug-In . SVG Version: 6.00 Build 0)  -->
<svg version="1.1" id="Layer_2_00000170251126620339108840000015349507023539976576_"
	 xmlns="http://www.w3.org/2000/svg" xmlns:xlink="http://www.w3.org/1999/xlink" x="0px" y="0px" width="351.8pt" height="87.5pt" viewBox="0 0 351.8 87.5"
	 style="enable-background:new 0 0 351.8 87.5;" xml:space="preserve">
<style type="text/css">
	.st0{fill:#041910;}
	.st1{fill:#57EA96;}
	.st2{fill:#FFFFFF;}
	.st3{fill:#F7EA48;}
	.st4{fill:#FFF8B3;}
	.st5{fill:#54D88D;}
</style>
<path class="st0" d="M302,66.9h43.7c3.4,0,6.1,2.7,6.1,6.1v8.3c0,3.4-2.7,6.1-6.1,6.1H302c-3.4,0-6.1-2.7-6.1-6.1v-8.3
	C295.9,69.7,298.6,66.9,302,66.9z"/>
<g>
	<g>
		<path class="st1" d="M302.5,83.6v-1.8h1.7v-9.3h-1.7v-1.8h6.5c0.8,0,1.4,0.1,2,0.4s1,0.6,1.3,1.1s0.5,1.1,0.5,1.7v0.2
			c0,0.6-0.1,1.1-0.3,1.4s-0.5,0.7-0.8,0.9s-0.6,0.3-0.9,0.4v0.3c0.3,0.1,0.6,0.2,0.9,0.4s0.6,0.5,0.8,0.9c0.2,0.4,0.3,0.9,0.3,1.5
			v0.2c0,0.7-0.2,1.3-0.5,1.8s-0.8,0.9-1.4,1.2c-0.6,0.3-1.2,0.4-2,0.4H302.5L302.5,83.6z M306.2,76.3h2.6c0.6,0,1.1-0.2,1.5-0.5
			s0.6-0.7,0.6-1.3v-0.2c0-0.5-0.2-1-0.6-1.3s-0.9-0.5-1.5-0.5h-2.6V76.3L306.2,76.3z M306.2,81.8h2.6c0.7,0,1.2-0.2,1.5-0.5
			c0.4-0.3,0.6-0.8,0.6-1.3v-0.2c0-0.6-0.2-1-0.6-1.3c-0.4-0.3-0.9-0.5-1.6-0.5h-2.6V81.8L306.2,81.8z"/>
		<path class="st1" d="M315.1,83.6V70.8h8v1.8h-6.1v3.7h5.6v1.8h-5.6v3.7h6.2v1.8L315.1,83.6L315.1,83.6z"/>
		<path class="st1" d="M328.3,83.6v-11h-3.9v-1.8h9.8v1.8h-3.9v11H328.3L328.3,83.6z"/>
		<path class="st1" d="M333.8,83.6l3.6-12.8h3.5l3.6,12.8h-2l-0.8-3h-5l-0.8,3H333.8L333.8,83.6z M337.2,78.8h4l-1.9-6.7H339
			L337.2,78.8L337.2,78.8z"/>
	</g>
	<g>
		<path class="st2" d="M302.5,83.6v-1.8h1.7v-9.3h-1.7v-1.8h6.5c0.8,0,1.4,0.1,2,0.4s1,0.6,1.3,1.1s0.5,1.1,0.5,1.7v0.2
			c0,0.6-0.1,1.1-0.3,1.4s-0.5,0.7-0.8,0.9s-0.6,0.3-0.9,0.4v0.3c0.3,0.1,0.6,0.2,0.9,0.4s0.6,0.5,0.8,0.9c0.2,0.4,0.3,0.9,0.3,1.5
			v0.2c0,0.7-0.2,1.3-0.5,1.8s-0.8,0.9-1.4,1.2c-0.6,0.3-1.2,0.4-2,0.4H302.5L302.5,83.6z M306.2,76.3h2.6c0.6,0,1.1-0.2,1.5-0.5
			s0.6-0.7,0.6-1.3v-0.2c0-0.5-0.2-1-0.6-1.3s-0.9-0.5-1.5-0.5h-2.6V76.3L306.2,76.3z M306.2,81.8h2.6c0.7,0,1.2-0.2,1.5-0.5
			c0.4-0.3,0.6-0.8,0.6-1.3v-0.2c0-0.6-0.2-1-0.6-1.3c-0.4-0.3-0.9-0.5-1.6-0.5h-2.6V81.8L306.2,81.8z"/>
		<path class="st2" d="M315.1,83.6V70.8h8v1.8h-6.1v3.7h5.6v1.8h-5.6v3.7h6.2v1.8L315.1,83.6L315.1,83.6z"/>
		<path class="st2" d="M328.3,83.6v-11h-3.9v-1.8h9.8v1.8h-3.9v11H328.3L328.3,83.6z"/>
		<path class="st2" d="M333.8,83.6l3.6-12.8h3.5l3.6,12.8h-2l-0.8-3h-5l-0.8,3H333.8L333.8,83.6z M337.2,78.8h4l-1.9-6.7H339
			L337.2,78.8L337.2,78.8z"/>
	</g>
</g>
<path class="st3" d="M61.8,7.2C31.6,7.2,7.2,31.6,7.2,61.8h54.6"/>
<path class="st4" d="M15.5,61.8H0C0,27.7,27.7,0,61.8,0v15.5C36.3,15.5,15.5,36.3,15.5,61.8z"/>
<path class="st5" d="M82.4,15.6H103c15.1,0,25.5,9.1,25.5,23.1S118.1,61.8,103,61.8H82.4C82.4,61.8,82.4,15.6,82.4,15.6z M102.4,53
	c9.2,0,15.2-5.5,15.2-14.3s-6-14.3-15.2-14.3h-9.8V53C92.7,53,102.4,53,102.4,53z"/>
<path class="st5" d="M171.5,26.3v35.5h-9.8v-4.2c-2.7,3.1-6.7,4.8-11,4.8c-8.9,0-15.2-5-15.2-16V26.3h10.3v18.5
	c0,5.9,2.6,8.6,7.2,8.6s8.2-3,8.2-9.6V26.3H171.5L171.5,26.3z"/>
<path class="st5" d="M196.4,47.8l-4.9,4.9v9h-10.3V15.6h10.3v24.9l15.1-14.2h12.3l-14.8,15L220,61.8h-12.5L196.4,47.8L196.4,47.8z"
	/>
<path class="st5" d="M259.2,26.3v35.5h-9.8v-4.1c-2.6,3.1-6.3,4.6-11.1,4.6c-10,0-17.8-7.1-17.8-18.3s7.7-18.3,17.8-18.3
	c4.4,0,8.1,1.4,10.6,4.3v-3.8L259.2,26.3L259.2,26.3z M249.1,44c0-6.1-4-9.8-9-9.8s-9.1,3.7-9.1,9.8s4,9.8,9.1,9.8
	S249.1,50.2,249.1,44z"/>
<path class="st5" d="M290.1,60.1c-2.1,1.5-5.2,2.2-8.3,2.2c-8.5,0-13.3-4.3-13.3-12.7v-34h10.3v10.7h8.8v7.9h-8.8v15.2
	c0,3,1.6,4.7,4.4,4.7c1.5,0,3-0.5,4.2-1.3L290.1,60.1L290.1,60.1z"/>
<path class="st5" d="M351.8,26.3v35.5h-9.8v-4.1c-2.6,3.1-6.3,4.6-11.1,4.6c-10,0-17.8-7.1-17.8-18.3s7.7-18.3,17.8-18.3
	c4.4,0,8,1.4,10.6,4.3v-3.8L351.8,26.3L351.8,26.3z M341.7,44c0-6.1-4-9.8-9-9.8s-9.1,3.7-9.1,9.8s4,9.8,9.1,9.8
	S341.7,50.2,341.7,44z"/>
<path class="st5" d="M301.2,34.2c-1.9,0-3.7-0.5-5.3-1.3v28.8h10.3V33.1C304.6,33.8,303,34.2,301.2,34.2L301.2,34.2z"/>
<circle class="st3" cx="301.2" cy="22.4" r="6.8"/>
</svg>
