<?xml version="1.0" encoding="UTF-8"?>
<!DOCTYPE svg PUBLIC "-//W3C//DTD SVG 20010904//EN"
 "http://www.w3.org/TR/2001/REC-SVG-20010904/DTD/svg10.dtd">
<svg id="Layer_2" data-name="Layer 2" xmlns="http://www.w3.org/2000/svg" viewBox="0 0 351.77 62.31">
  <defs>
    <style>
      .cls-1 {
        fill: #f7ea48;
      }

      .cls-2 {
        fill: #fff;
      }

      .cls-3 {
        fill: #fff8b3;
      }
    </style>
  </defs>
  <g id="Layer_1-2" data-name="Layer 1">
    <g>
      <path class="cls-1" d="m61.78,7.16C31.61,7.16,7.16,31.61,7.16,61.78h54.62"/>
      <path class="cls-3" d="m15.5,61.78H0C0,27.71,27.71,0,61.78,0v15.5c-25.52,0-46.28,20.76-46.28,46.28Z"/>
      <g>
        <g>
          <path class="cls-2" d="m82.37,15.58h20.59c15.11,0,25.47,9.11,25.47,23.1s-10.36,23.1-25.47,23.1h-20.59V15.58Zm20.06,37.42c9.17,0,15.18-5.48,15.18-14.32s-6.01-14.32-15.18-14.32h-9.77v28.64h9.77Z"/>
          <path class="cls-2" d="m171.53,26.27v35.5h-9.77v-4.22c-2.71,3.1-6.67,4.75-11.02,4.75-8.91,0-15.18-5.02-15.18-15.97v-20.06h10.29v18.54c0,5.94,2.64,8.58,7.19,8.58s8.18-3.04,8.18-9.57v-17.55h10.29Z"/>
          <path class="cls-2" d="m196.35,47.85l-4.95,4.88v9.04h-10.29V15.58h10.29v24.95l15.05-14.25h12.27l-14.78,15.05,16.1,20.46h-12.47l-11.22-13.92Z"/>
          <path class="cls-2" d="m259.18,26.27v35.5h-9.83v-4.09c-2.57,3.1-6.34,4.62-11.09,4.62-10.03,0-17.75-7.13-17.75-18.28s7.72-18.28,17.75-18.28c4.36,0,8.05,1.39,10.62,4.29v-3.76h10.29Zm-10.1,17.75c0-6.14-3.96-9.83-9.04-9.83s-9.11,3.7-9.11,9.83,3.96,9.83,9.11,9.83,9.04-3.7,9.04-9.83Z"/>
          <path class="cls-2" d="m290.07,60.06c-2.11,1.52-5.21,2.24-8.32,2.24-8.45,0-13.26-4.29-13.26-12.74V15.58h10.29v10.69h8.78v7.92h-8.78v15.24c0,3.04,1.58,4.69,4.36,4.69,1.52,0,3.04-.46,4.22-1.32l2.71,7.26Z"/>
          <path class="cls-2" d="m351.77,26.27v35.5h-9.83v-4.09c-2.57,3.1-6.33,4.62-11.09,4.62-10.03,0-17.75-7.13-17.75-18.28s7.72-18.28,17.75-18.28c4.36,0,8.05,1.39,10.62,4.29v-3.76h10.29Zm-10.1,17.75c0-6.14-3.96-9.83-9.04-9.83s-9.11,3.7-9.11,9.83,3.96,9.83,9.11,9.83,9.04-3.7,9.04-9.83Z"/>
        </g>
        <path class="cls-2" d="m301.18,34.19c-1.91,0-3.71-.46-5.31-1.27v28.85h10.29v-28.7c-1.52.71-3.2,1.11-4.99,1.11Z"/>
      </g>
      <circle class="cls-1" cx="301.18" cy="22.36" r="6.78"/>
    </g>
  </g>
</svg>